<svg width="64" height="64" viewBox="0 0 64 64" fill="none" xmlns="http://www.w3.org/2000/svg">
  <!-- Favicon for SahaLink -->
  <!-- Heart outline (Green) -->
  <path d="M32 20C32 14.4772 27.5228 10 22 10C16.4772 10 12 14.4772 12 20C12 32.5 28.6667 45 32 46.6667C35.3333 45 52 32.5 52 20C52 14.4772 47.5228 10 42 10C36.4772 10 32 14.4772 32 20Z" stroke="#00A651" stroke-width="4" stroke-linecap="round" stroke-linejoin="round"/>
  
  <!-- Pulse Line (Green) -->
  <path d="M4 31H10L13 23L19 39L22 31H26" stroke="#00A651" stroke-width="3" stroke-linecap="round" stroke-linejoin="round"/>
  
  <!-- Link Segment (Blue) -->
  <path d="M40 36L48 28" stroke="#007BFF" stroke-width="5" stroke-linecap="round"/>
  <rect x="42" y="26" width="10" height="5" rx="2.5" transform="rotate(45 42 26)" fill="#007BFF"/>
</svg>
